<svg width="760" height="200" viewBox="0 0 760 200" xmlns="http://www.w3.org/2000/svg" role="img" aria-label="Chimera">
  <defs>
    <linearGradient id="bg2" x1="0" y1="0" x2="0" y2="1">
      <stop offset="0" stop-color="#273341"/>
      <stop offset="1" stop-color="#1b2530"/>
    </linearGradient>
    <linearGradient id="lion2" x1="0" y1="1" x2="0" y2="0">
      <stop offset="0" stop-color="#f59e0b"/><stop offset="1" stop-color="#fcd34d"/>
    </linearGradient>
    <linearGradient id="goat2" x1="0" y1="1" x2="0" y2="0">
      <stop offset="0" stop-color="#0d9488"/><stop offset="1" stop-color="#2dd4bf"/>
    </linearGradient>
    <linearGradient id="snake2" x1="0" y1="1" x2="0" y2="0">
      <stop offset="0" stop-color="#7c3aed"/><stop offset="1" stop-color="#a78bfa"/>
    </linearGradient>
  </defs>

  <!-- mark -->
  <g transform="translate(20,16) scale(0.66)">
    <path d="M128 14 L222 68 L222 188 L128 242 L34 188 L34 68 Z"
          fill="url(#bg2)" stroke="#3b4a5a" stroke-width="4" stroke-linejoin="round"/>
    <g transform="translate(128,150)">
      <path d="M0 0 C -42 -28 -56 -78 -30 -118 C -10 -86 -6 -44 0 0 Z" fill="url(#snake2)" opacity="0.95"/>
      <path d="M0 0 C 42 -28 56 -78 30 -118 C 10 -86 6 -44 0 0 Z" fill="url(#goat2)" opacity="0.95"/>
      <path d="M0 4 C -22 -40 -22 -96 0 -134 C 22 -96 22 -40 0 4 Z" fill="url(#lion2)"/>
      <circle cx="0" cy="6" r="13" fill="#0f1620"/>
      <circle cx="0" cy="6" r="6" fill="#fcd34d"/>
    </g>
  </g>

  <!-- wordmark -->
  <text x="210" y="104" font-family="'Segoe UI', system-ui, sans-serif" font-size="76" font-weight="700" fill="#1b2530">Chimera</text>
  <text x="212" y="146" font-family="ui-monospace, 'DejaVu Sans Mono', monospace" font-size="21" fill="#5b6b7b">cloud-hypervisor fleet manager</text>
</svg>
